<svg xmlns="http://www.w3.org/2000/svg" xmlns:xlink="http://www.w3.org/1999/xlink" width="443" zoomAndPan="magnify" viewBox="22.5 129.75 332.25 99.75" height="133" preserveAspectRatio="xMidYMid meet" version="1.0" style=""><defs><g/><clipPath id="bfdf9b398c"><rect x="0" width="82" y="0" height="163"/></clipPath><clipPath id="b2f70d3131"><path d="M 115.914062 132.621094 L 351.996094 132.621094 L 351.996094 226.734375 L 115.914062 226.734375 Z M 115.914062 132.621094 " clip-rule="nonzero"/></clipPath><clipPath id="94480de0f5"><path d="M 0.914062 0.621094 L 236.996094 0.621094 L 236.996094 94.734375 L 0.914062 94.734375 Z M 0.914062 0.621094 " clip-rule="nonzero"/></clipPath><clipPath id="5ba4f5d10f"><rect x="0" width="237" y="0" height="95"/></clipPath><clipPath id="435e370699"><path d="M 0.558594 24 L 40 24 L 40 89 L 0.558594 89 Z M 0.558594 24 " clip-rule="nonzero"/></clipPath><clipPath id="36257d9e5b"><rect x="0" width="212" y="0" height="98"/></clipPath></defs><rect x="-37.5" width="450" fill="#ffffff" y="-37.499999" height="449.999989" fill-opacity="1"/><rect x="-37.5" width="450" fill="#000000" y="-37.499999" height="449.999989" fill-opacity="1"/><g transform="matrix(1, 0, 0, 1, 22, 101)"><g clip-path="url(#bfdf9b398c)"><g fill="#ffffff" fill-opacity="1"><g transform="translate(2.568993, 125.823342)"><g><path d="M 1.640625 0 L 10.703125 -93.875 L 42.515625 -93.875 L 51.46875 0 L 33.65625 0 L 32.34375 -15.1875 L 20.984375 -15.1875 L 19.890625 0 Z M 22.40625 -30.15625 L 30.921875 -30.15625 L 26.78125 -77.921875 L 25.90625 -77.921875 Z M 22.40625 -30.15625 "/></g></g></g><g fill="#ffffff" fill-opacity="1"><g transform="translate(55.5709, 125.823342)"><g><path d="M 3.28125 0 L 3.28125 -93.875 L 21.421875 -93.875 L 21.421875 0 Z M 3.28125 0 "/></g></g></g></g></g><g clip-path="url(#b2f70d3131)"><g transform="matrix(1, 0, 0, 1, 115, 132)"><g clip-path="url(#5ba4f5d10f)"><g clip-path="url(#94480de0f5)"><path fill="#ffffff" d="M 236.996094 0.621094 L 236.996094 94.734375 L 0.96875 94.734375 L 0.96875 0.621094 Z M 236.996094 0.621094 " fill-opacity="1" fill-rule="nonzero"/></g></g></g></g><g transform="matrix(1, 0, 0, 1, 130, 124)"><g clip-path="url(#36257d9e5b)"><g clip-path="url(#435e370699)"><g fill="#000000" fill-opacity="1"><g transform="translate(0.938924, 88.308225)"><g><path d="M 30.53125 -11.96875 L 30.53125 0 L 0.890625 0 C 0.296875 0 0 -0.238281 0 -0.71875 L 0 -63.546875 C 0 -64.023438 0.296875 -64.265625 0.890625 -64.265625 L 30.53125 -64.265625 L 30.53125 -52.609375 L 12.296875 -52.609375 L 12.296875 -38.078125 L 37.515625 -38.078125 C 38.097656 -38.078125 38.390625 -37.835938 38.390625 -37.359375 L 38.390625 -27.15625 C 38.390625 -26.664062 38.097656 -26.421875 37.515625 -26.421875 L 12.296875 -26.421875 L 12.296875 -11.96875 Z M 30.53125 -11.96875 "/></g></g></g></g><g fill="#000000" fill-opacity="1"><g transform="translate(44.874445, 88.308225)"><g><path d="M 30.53125 -11.96875 L 30.53125 0 L 0.890625 0 C 0.296875 0 0 -0.238281 0 -0.71875 L 0 -63.546875 C 0 -64.023438 0.296875 -64.265625 0.890625 -64.265625 L 30.53125 -64.265625 L 30.53125 -52.609375 L 12.296875 -52.609375 L 12.296875 -38.078125 L 37.515625 -38.078125 C 38.097656 -38.078125 38.390625 -37.835938 38.390625 -37.359375 L 38.390625 -27.15625 C 38.390625 -26.664062 38.097656 -26.421875 37.515625 -26.421875 L 12.296875 -26.421875 L 12.296875 -11.96875 Z M 30.53125 -11.96875 "/></g></g></g><g fill="#000000" fill-opacity="1"><g transform="translate(88.809966, 88.308225)"><g><path d="M 29.484375 -35.671875 C 32.859375 -34.117188 35.441406 -31.851562 37.234375 -28.875 C 39.023438 -25.90625 39.921875 -22.519531 39.921875 -18.71875 C 39.921875 -14.695312 38.96875 -11.296875 37.0625 -8.515625 C 35.164062 -5.734375 32.703125 -3.617188 29.671875 -2.171875 C 26.648438 -0.722656 23.425781 0 20 0 C 20 0 19.972656 0 19.921875 0 L 19.921875 -11.5625 C 19.972656 -11.5625 20 -11.5625 20 -11.5625 C 22.144531 -11.5625 24.019531 -12.21875 25.625 -13.53125 C 27.226562 -14.84375 28.03125 -16.570312 28.03125 -18.71875 C 28.03125 -20.320312 27.613281 -21.6875 26.78125 -22.8125 C 25.957031 -23.9375 24.925781 -24.816406 23.6875 -25.453125 C 22.457031 -26.097656 21.226562 -26.453125 20 -26.515625 C 19.726562 -26.515625 18.65625 -26.609375 16.78125 -26.796875 C 14.914062 -26.984375 12.800781 -27.609375 10.4375 -28.671875 C 7.125 -30.222656 4.554688 -32.378906 2.734375 -35.140625 C 0.910156 -37.898438 0 -41.15625 0 -44.90625 C 0 -48.914062 0.945312 -52.367188 2.84375 -55.265625 C 4.75 -58.160156 7.226562 -60.382812 10.28125 -61.9375 C 13.332031 -63.488281 16.570312 -64.265625 20 -64.265625 C 23.695312 -64.265625 27.015625 -63.5 29.953125 -61.96875 C 32.898438 -60.445312 35.242188 -58.304688 36.984375 -55.546875 C 38.734375 -52.785156 39.632812 -49.585938 39.6875 -45.953125 C 39.738281 -45.835938 39.671875 -45.703125 39.484375 -45.546875 C 39.296875 -45.390625 39.066406 -45.3125 38.796875 -45.3125 L 28.75 -45.3125 C 28.539062 -45.3125 28.34375 -45.390625 28.15625 -45.546875 C 27.96875 -45.703125 27.875 -45.835938 27.875 -45.953125 C 27.820312 -48.253906 27.019531 -49.953125 25.46875 -51.046875 C 23.914062 -52.148438 22.09375 -52.703125 20 -52.703125 C 17.800781 -52.703125 15.910156 -52.046875 14.328125 -50.734375 C 12.753906 -49.421875 11.96875 -47.476562 11.96875 -44.90625 C 11.96875 -42.601562 12.796875 -40.847656 14.453125 -39.640625 C 16.117188 -38.429688 17.96875 -37.828125 20 -37.828125 C 20.164062 -37.828125 20.703125 -37.800781 21.609375 -37.75 C 22.515625 -37.695312 23.675781 -37.523438 25.09375 -37.234375 C 26.519531 -36.941406 27.984375 -36.421875 29.484375 -35.671875 Z M 29.484375 -35.671875 "/></g></g></g><g fill="#000000" fill-opacity="1"><g transform="translate(134.351884, 88.308225)"><g><path d="M 13.25 -40.96875 L 25.46875 -40.96875 L 25.46875 -0.71875 C 25.46875 -0.238281 25.144531 0 24.5 0 L 14.140625 0 C 13.546875 0 13.25 -0.238281 13.25 -0.71875 Z M 0.890625 -53.25 C 0.296875 -53.25 0 -53.492188 0 -53.984375 L 0 -63.546875 C 0 -64.023438 0.296875 -64.265625 0.890625 -64.265625 L 37.75 -64.265625 C 38.34375 -64.265625 38.640625 -64.023438 38.640625 -63.546875 L 38.640625 -53.984375 C 38.640625 -53.492188 38.34375 -53.25 37.75 -53.25 Z M 0.890625 -53.25 "/></g></g></g><g fill="#000000" fill-opacity="1"><g transform="translate(178.528364, 88.308225)"><g><path d="M 26.1875 -11 C 26.78125 -11 27.078125 -10.757812 27.078125 -10.28125 L 27.078125 -0.71875 C 27.078125 -0.238281 26.78125 0 26.1875 0 L 0.890625 0 C 0.296875 0 0 -0.238281 0 -0.71875 L 0 -10.28125 C 0 -10.757812 0.296875 -11 0.890625 -11 L 7.46875 -11 L 7.46875 -64.265625 L 19.765625 -64.265625 L 19.765625 -11 Z M 26.1875 -11 "/></g></g></g></g></g></svg>