<?xml version="1.0" encoding="utf-8"?>
<!-- Generator: Adobe Illustrator 23.0.3, SVG Export Plug-In . SVG Version: 6.00 Build 0)  -->
<svg version="1.1" id="Layer_1" xmlns="http://www.w3.org/2000/svg" xmlns:xlink="http://www.w3.org/1999/xlink" x="0px" y="0px"
	 viewBox="61.97 322.64 1066.42 197.8" style="enable-background:new 0 0 1190.55 841.89;" xml:space="preserve">
<style type="text/css">
	.st0{fill:#6D6E71;}
	.st1{fill:#00A5E8;}
	.st2{fill:none;}
</style>
<g>
	<g>
		<g>
			<g>
				<path class="st0" d="M681.91,350h21.46v4.67H687v9.61h13.96v4.39H687v13.91h-5.09V350z"/>
				<path class="st0" d="M710.06,350h5.09v32.58h-5.09V350z"/>
				<path class="st0" d="M725.05,350h4.81l15.19,23.16h0.09V350h5.09v32.58h-4.81l-15.19-23.16h-0.09v23.16h-5.09V350z"/>
				<path class="st0" d="M760.13,350h4.81l15.19,23.16h0.09V350h5.09v32.58h-4.81l-15.19-23.16h-0.09v23.16h-5.09V350z"/>
				<path class="st0" d="M795.21,350h5.09v32.58h-5.09V350z"/>
				<path class="st0" d="M810.63,374.67c2.55,1.97,5.94,3.25,9.53,3.25c4.15,0,6.65-1.83,6.65-4.53c0-2.29-1.37-4.03-4.39-4.39
					c-1.51-0.18-2.69-0.37-4.43-0.6c-5.8-0.78-8.91-4.44-8.91-9.15c0-5.58,4.01-9.52,10.94-9.52c4.15,0,7.83,1.42,10.89,3.39
					l-2.83,4.07c-2.45-1.51-5.33-2.52-8.3-2.52c-3.11,0-5.61,1.56-5.61,4.67c0,1.83,1.37,3.66,4.76,4.16
					c0.9,0.14,2.17,0.32,3.77,0.5c6.27,0.73,9.2,4.94,9.2,9.38c0,6-4.57,9.47-11.79,9.47c-4.95,0-9.29-1.46-12.83-4.48
					L810.63,374.67z"/>
				<path class="st0" d="M858.49,368.35h-13.3v14.23h-5.09V350h5.09v13.96h13.3V350h5.09v32.58h-5.09V368.35z"/>
				<path class="st0" d="M681.91,404.91h13.02c6.56,0,9.95,3.62,9.95,8.74c0,2.7-1.04,5.31-4.95,7v0.09
					c3.68,0.82,5.47,4.21,5.47,7.5c0,5.63-4.29,9.24-9.34,9.24h-14.15V404.91z M687,409.3v9.33h7.36c3.68,0,5.42-2.1,5.42-4.67
					c0-2.52-1.74-4.67-5.42-4.67H687z M687,423.03v9.79h7.83c3.77,0,5.47-2.33,5.47-4.9c0-2.56-1.7-4.9-5.47-4.9H687z"/>
				<path class="st0" d="M712.89,404.91h5.09v21.01c0,4.48,2.97,6.91,6.84,6.91c3.87,0,6.84-2.42,6.84-6.91v-21.01h5.09v21.55
					c0,6.77-5.28,11.3-11.93,11.3s-11.93-4.53-11.93-11.3V404.91z"/>
				<path class="st0" d="M746.46,429.57c2.55,1.97,5.94,3.25,9.53,3.25c4.15,0,6.65-1.83,6.65-4.53c0-2.29-1.37-4.03-4.39-4.39
					c-1.51-0.18-2.69-0.37-4.43-0.6c-5.8-0.78-8.91-4.44-8.91-9.15c0-5.58,4.01-9.52,10.94-9.52c4.15,0,7.83,1.42,10.89,3.39
					l-2.83,4.07c-2.45-1.51-5.33-2.52-8.3-2.52c-3.11,0-5.61,1.56-5.61,4.67c0,1.83,1.37,3.66,4.76,4.16
					c0.9,0.14,2.17,0.32,3.77,0.5c6.27,0.73,9.2,4.94,9.2,9.38c0,6-4.57,9.47-11.79,9.47c-4.95,0-9.29-1.46-12.83-4.48
					L746.46,429.57z"/>
				<path class="st0" d="M775.92,404.91h5.09v32.58h-5.09V404.91z"/>
				<path class="st0" d="M790.92,404.91h4.81l15.19,23.16h0.09v-23.16h5.09v32.58h-4.81l-15.19-23.16h-0.09v23.16h-5.09V404.91z"/>
				<path class="st0" d="M826,404.91h21.46v4.67h-16.36v9.29h13.96v4.39h-13.96v9.56h16.36v4.67H826V404.91z"/>
				<path class="st0" d="M855.47,429.57c2.55,1.97,5.94,3.25,9.53,3.25c4.15,0,6.65-1.83,6.65-4.53c0-2.29-1.37-4.03-4.38-4.39
					c-1.51-0.18-2.69-0.37-4.43-0.6c-5.8-0.78-8.91-4.44-8.91-9.15c0-5.58,4.01-9.52,10.94-9.52c4.15,0,7.83,1.42,10.89,3.39
					l-2.83,4.07c-2.45-1.51-5.33-2.52-8.3-2.52c-3.11,0-5.61,1.56-5.61,4.67c0,1.83,1.37,3.66,4.76,4.16
					c0.9,0.14,2.17,0.32,3.77,0.5c6.27,0.73,9.2,4.94,9.2,9.38c0,6-4.57,9.47-11.79,9.47c-4.95,0-9.29-1.46-12.83-4.48
					L855.47,429.57z"/>
				<path class="st0" d="M885.36,429.57c2.55,1.97,5.94,3.25,9.53,3.25c4.15,0,6.65-1.83,6.65-4.53c0-2.29-1.37-4.03-4.38-4.39
					c-1.51-0.18-2.69-0.37-4.43-0.6c-5.8-0.78-8.91-4.44-8.91-9.15c0-5.58,4.01-9.52,10.94-9.52c4.15,0,7.83,1.42,10.89,3.39
					l-2.83,4.07c-2.45-1.51-5.33-2.52-8.3-2.52c-3.11,0-5.61,1.56-5.61,4.67c0,1.83,1.37,3.66,4.76,4.16
					c0.9,0.14,2.17,0.32,3.77,0.5c6.27,0.73,9.2,4.94,9.2,9.38c0,6-4.57,9.47-11.79,9.47c-4.95,0-9.29-1.46-12.83-4.48
					L885.36,429.57z"/>
				<path class="st0" d="M946.18,430.22h-12.73l-2.59,7.28h-5.38l12.21-32.58h4.24l12.21,32.58h-5.38L946.18,430.22z M944.72,425.82
					l-4.86-14.23h-0.09l-4.86,14.23H944.72z"/>
				<path class="st0" d="M960.56,404.91h4.81l15.18,23.16h0.1v-23.16h5.09v32.58h-4.81l-15.18-23.16h-0.09v23.16h-5.09V404.91z"/>
				<path class="st0" d="M1006.53,419.55h11.93v6.64c0,6.45-5.28,11.58-11.98,11.58c-5.28,0-8.91-3.02-10.52-5.86
					c-1.08-1.92-1.46-2.88-1.46-10.71c0-7.83,0.38-8.79,1.46-10.71c1.6-2.84,5.23-5.86,10.52-5.86c6.37,0,10.75,4.35,11.79,9.66
					h-5.38c-0.8-2.52-3.21-4.71-6.41-4.71c-2.4,0-4.15,1.1-5.19,2.38c-1.32,1.65-1.7,2.56-1.7,9.24c0,6.68,0.38,7.6,1.7,9.24
					c1.04,1.28,2.78,2.38,5.19,2.38c3.87,0,6.88-2.84,6.88-6.91v-1.69h-6.84V419.55z"/>
				<path class="st0" d="M1027.23,404.91h21.46v4.67h-16.36v9.29h13.96v4.39h-13.96v9.56h16.36v4.67h-21.46V404.91z"/>
				<path class="st0" d="M1056.27,404.91h5.09v27.91h16.36v4.67h-21.46V404.91z"/>
				<path class="st0" d="M1085.74,429.57c2.55,1.97,5.94,3.25,9.53,3.25c4.15,0,6.65-1.83,6.65-4.53c0-2.29-1.37-4.03-4.38-4.39
					c-1.51-0.18-2.69-0.37-4.43-0.6c-5.8-0.78-8.91-4.44-8.91-9.15c0-5.58,4.01-9.52,10.94-9.52c4.15,0,7.83,1.42,10.89,3.39
					l-2.83,4.07c-2.45-1.51-5.33-2.52-8.3-2.52c-3.11,0-5.61,1.56-5.61,4.67c0,1.83,1.37,3.66,4.76,4.16
					c0.9,0.14,2.17,0.32,3.77,0.5c6.27,0.73,9.2,4.94,9.2,9.38c0,6-4.57,9.47-11.79,9.47c-4.95,0-9.29-1.46-12.83-4.48
					L1085.74,429.57z"/>
				<path class="st0" d="M681.91,459.82h4.81l15.19,23.16H702v-23.16h5.09v32.58h-4.81l-15.19-23.16H687v23.16h-5.09V459.82z"/>
				<path class="st0" d="M716.99,459.82h21.46v4.67h-16.36v9.29h13.96v4.39h-13.96v9.56h16.36v4.67h-21.46V459.82z"/>
				<path class="st0" d="M751.74,464.21h-9.2v-4.39h23.48v4.39h-9.2v28.19h-5.09V464.21z"/>
				<path class="st0" d="M769.42,459.82h5.38l5.28,23.16h0.09l6.51-23.16h3.68l6.51,23.16h0.09l5.28-23.16h5.38l-8.39,32.58h-4.24
					l-6.41-23.48h-0.09l-6.41,23.48h-4.24L769.42,459.82z"/>
				<path class="st0" d="M814.82,465.4c1.6-2.84,5.23-5.86,10.52-5.86c5.28,0,8.91,3.02,10.52,5.86c1.08,1.92,1.46,2.88,1.46,10.71
					c0,7.82-0.38,8.79-1.46,10.71c-1.6,2.84-5.24,5.86-10.52,5.86c-5.28,0-8.91-3.02-10.52-5.86c-1.08-1.92-1.46-2.88-1.46-10.71
					C813.36,468.28,813.74,467.32,814.82,465.4z M820.15,485.35c1.04,1.28,2.78,2.38,5.19,2.38c2.41,0,4.15-1.1,5.19-2.38
					c1.32-1.65,1.7-2.56,1.7-9.24c0-6.68-0.38-7.6-1.7-9.24c-1.04-1.28-2.78-2.38-5.19-2.38c-2.4,0-4.15,1.1-5.19,2.38
					c-1.32,1.65-1.7,2.56-1.7,9.24C818.45,482.79,818.83,483.7,820.15,485.35z"/>
				<path class="st0" d="M846.08,459.82h13.11c2.83,0,5.05,0.64,6.84,2.15c1.89,1.56,3.35,4.03,3.35,6.96
					c0,4.21-2.45,7.64-6.51,9.01l7.78,14.46h-6.04l-6.93-13.91h-6.51v13.91h-5.09V459.82z M851.18,474.09h7.69
					c3.82,0,5.71-2.43,5.71-5.17c0-1.69-0.66-2.97-1.7-3.71c-0.94-0.69-1.98-1.01-3.73-1.01h-7.97V474.09z"/>
				<path class="st0" d="M877.67,459.82h5.09v16.79h0.09l13.82-16.79h6.04l-10.75,12.86l11.88,19.72h-6.04l-9.15-15.93l-5.89,6v9.93
					h-5.09V459.82z"/>
			</g>
		</g>
		<g>
			<g>
				<polygon class="st1" points="181.69,349.9 91.6,349.9 91.6,492.15 120.05,492.15 120.05,432.88 181.69,432.88 181.69,404.43 
					120.05,404.43 120.05,378.35 181.69,378.35 				"/>
				<g>
					<polygon class="st1" points="212.51,492.15 240.96,492.15 240.96,404.43 212.51,404.43 212.51,492.15 					"/>
				</g>
				<polygon class="st1" points="625.03,349.9 625.03,441.79 572.44,349.9 542.05,349.9 542.05,492.15 570.5,492.15 570.5,399.04 
					623.16,492.3 653.48,492.34 653.48,349.9 				"/>
				<g>
					<path class="st1" d="M363.31,416.35c8.38-12.5,9.55-29,3.13-42.59c-6.21-13.15-20.83-22.74-33.41-23.02
						c-12.58-0.28-22.56-0.44-22.56-0.44l-38.68-0.04V492.5l66.55,0.03l3.15-0.21c15.27-1.89,28.56-12.21,34.33-26.51
						c5.99-14.85,3.16-32.39-7.35-44.5C366.89,419.5,365.14,417.85,363.31,416.35z M328.93,378.13c7.17,0.88,12.73,6.96,12.73,14.16
						c0,7.2-5.48,12.85-12.67,13.73l-31.12,0.03V378.2L328.93,378.13z M297.86,463.86v-29.44l39.26,0.14
						c7.17,0.89,12.69,7.76,12.69,14.98c0,7.22-5.65,13.28-12.81,14.16L297.86,463.86z"/>
				</g>
				<g>
					<path class="st1" d="M503.18,440.29c-5.26,6.13-17.4,6.86-28.92,5.94l17.88,46.31l30.56,0.04L503.18,440.29z"/>
					<path class="st1" d="M435.12,434.04c0.05-0.08,0.11-0.16,0.17-0.25C435.24,433.86,435.18,433.95,435.12,434.04z"/>
					<path class="st1" d="M435.29,433.78c0.1-0.16,0.19-0.28,0.26-0.39C435.47,433.52,435.38,433.65,435.29,433.78z"/>
					<path class="st1" d="M434.91,434.35c0.03-0.04,0.05-0.07,0.08-0.12C434.95,434.3,434.91,434.35,434.91,434.35z"/>
					<path class="st1" d="M434.99,434.23c0.01-0.01,0.01-0.02,0.02-0.03C435.01,434.21,435,434.22,434.99,434.23z"/>
					<path class="st1" d="M435.02,434.2c0.04-0.06,0.07-0.11,0.11-0.16C435.08,434.1,435.05,434.15,435.02,434.2z"/>
					<path class="st1" d="M435.8,433.02C435.84,432.97,435.84,432.96,435.8,433.02L435.8,433.02z"/>
					<path class="st1" d="M435.55,433.4c0.07-0.11,0.13-0.2,0.19-0.28C435.69,433.18,435.63,433.27,435.55,433.4z"/>
					<path class="st1" d="M435.74,433.12c0.03-0.04,0.05-0.07,0.06-0.09C435.78,433.05,435.77,433.08,435.74,433.12z"/>
					<path class="st1" d="M436.84,446.91c3.97-2.66,8.41-4.15,13.3-4.92c6.3-0.99,12.73-1.8,19.07-1.4c3.17,0.2,6.33,0.44,9.5,0.58
						c3.39,0.16,8.27,0.29,11.61-0.4c3.26-0.67,8.11-2.32,11.26-5.47c1.77-1.77,4.7-6.34,4.16-6.42
						c-4.28,3.39-16.96,3.78-22.11,3.54c-10.69-0.5-24.85-1.46-35.12,2.28c7.76-7.62,35.55-6.42,47.15-8.43
						c10.96-1.89,20.36-8.59,21.65-20.22c-4.2,4.9-10.22,6.61-16.4,7.34c-0.67,0.08-6.66,0.97-6.79,0.64
						c-0.14-0.36-24.7-63.72-24.7-63.72l-33.34-0.1l-53.74,142.1l30.94,0.02c0,0,4.06-12.3,5.32-15.58
						c1.71-4.46,3.29-8.25,4.64-11.36c3.41-5.8,12.12-10.32,16.07-11.27c4.02-0.96,9.19-0.79,13.19-0.8
						c7.89-0.03,15.99,0.53,19.31-7.24C461.07,445.31,446.41,443.97,436.84,446.91z M452.71,385.29l12.45,34.03
						c-5.91,0.78-11.61,2.23-16.91,5.01c-4.69,2.47-10.32,5.5-13.34,10.01L452.71,385.29z"/>
				</g>
			</g>
			<rect x="212.51" y="349.9" class="st1" width="28.45" height="28.45"/>
		</g>
	</g>
	<rect x="61.97" y="322.64" class="st2" width="1066.42" height="197.8"/>
</g>
</svg>
