<svg width="2000" height="550" viewBox="0 0 2000 550" fill="none" xmlns="http://www.w3.org/2000/svg">
<path d="M469.565 0.000244141L352.174 0.000244141V413.044H469.565V0.000244141Z" fill="#2F3033"/>
<path d="M273.912 413.043V550H117.391L273.912 413.043Z" fill="#2F3033"/>
<path d="M1686.96 136.957V0.000244141L1843.48 0.000244141L1686.96 136.957Z" fill="#2F3033"/>
<path d="M1843.48 0.000244141L2000 0.000244141V136.957L1843.48 0.000244141Z" fill="#2F3033"/>
<path d="M2000 413.043V550H1843.48L2000 413.043Z" fill="#2F3033"/>
<path d="M1843.48 550H1686.96V413.043L1843.48 550Z" fill="#2F3033"/>
<path d="M1450 0.000244141L1608.7 0.000244141V136.957L1450 0.000244141Z" fill="#2F3033"/>
<path d="M1450.98 196.063H1607.84V352.914L1450.98 196.063Z" fill="#2F3033"/>
<path d="M1608.7 413.043V550H1450L1608.7 413.043Z" fill="#2F3033"/>
<path d="M117.391 0L0 0L0 550H117.391L117.391 0Z" fill="#2F3033"/>
<path d="M823.913 136.957V0.000244141L980.435 0.000244141L823.913 136.957Z" fill="#2F3033"/>
<path d="M1097.83 0.000488281L1254.35 0.000488281V136.957L1097.83 0.000488281Z" fill="#2F3033"/>
<path d="M1098.04 0.000488281L980.392 0.000488281V548.978H1098.04V0.000488281Z" fill="#2F3033"/>
<path d="M1450 0.000244141L1332.61 0.000244141V550H1450V0.000244141Z" fill="#2F3033"/>
<path d="M1686.96 136.957V275L2000 413.044V275L1686.96 136.957Z" fill="#2F3033"/>
<path d="M628.261 550H469.565V413.043L628.261 550Z" fill="#2F3033"/>
<path d="M628.261 550H745.652V0H628.261V550Z" fill="#2F3033"/>
</svg>
